<svg width="800" height="600" viewBox="0 0 800 600" fill="none" xmlns="http://www.w3.org/2000/svg">
  <rect width="800" height="600" fill="#F7FBF9" />
  <rect x="60" y="80" width="680" height="440" rx="32" fill="#FFFFFF" stroke="#0B5C5B" stroke-opacity="0.08" stroke-width="4" />
  <rect x="120" y="140" width="360" height="220" rx="20" fill="#B3E9CF" fill-opacity="0.6" />
  <rect x="520" y="140" width="160" height="120" rx="16" fill="#E4AF26" fill-opacity="0.25" />
  <rect x="520" y="280" width="160" height="160" rx="20" fill="#0B5C5B" fill-opacity="0.08" />
  <rect x="150" y="380" width="420" height="80" rx="18" fill="#FFFFFF" stroke="#0B5C5B" stroke-opacity="0.12" stroke-width="4" />
  <rect x="180" y="404" width="120" height="16" rx="8" fill="#0B5C5B" fill-opacity="0.4" />
  <rect x="320" y="404" width="180" height="16" rx="8" fill="#0B5C5B" fill-opacity="0.2" />
  <rect x="210" y="220" width="160" height="14" rx="7" fill="#0B5C5B" fill-opacity="0.35" />
  <rect x="210" y="250" width="200" height="14" rx="7" fill="#0B5C5B" fill-opacity="0.2" />
  <rect x="210" y="280" width="140" height="14" rx="7" fill="#0B5C5B" fill-opacity="0.2" />
  <circle cx="590" cy="200" r="36" fill="#E4AF26" fill-opacity="0.4" />
  <rect x="570" y="360" width="80" height="8" rx="4" fill="#0B5C5B" fill-opacity="0.25" />
  <rect x="570" y="382" width="110" height="8" rx="4" fill="#0B5C5B" fill-opacity="0.2" />
  <rect x="120" y="480" width="560" height="24" rx="12" fill="#0B5C5B" fill-opacity="0.08" />
  <circle cx="640" cy="488" r="16" fill="#B3E9CF" fill-opacity="0.8" />
</svg>
